<svg width="211" height="223" viewBox="0 0 211 223" fill="none" xmlns="http://www.w3.org/2000/svg">
<path fill-rule="evenodd" clip-rule="evenodd" d="M160.75 98.5098C160.649 98.5098 160.547 98.4843 160.453 98.4301L157.21 96.5576C156.925 96.3934 156.828 96.0291 156.992 95.7443C157.157 95.4592 157.521 95.3617 157.806 95.5263L161.049 97.3985C161.333 97.5627 161.431 97.9273 161.267 98.2122C161.156 98.4031 160.956 98.51 160.75 98.5098ZM158.938 101.649C158.836 101.649 158.734 101.624 158.64 101.57L155.398 99.6972C155.113 99.5328 155.015 99.1687 155.18 98.8837C155.344 98.5988 155.708 98.5012 155.993 98.6657L159.236 100.538C159.521 100.702 159.618 101.067 159.454 101.352C159.344 101.543 159.143 101.65 158.938 101.649ZM177.054 107.923C176.953 107.923 176.851 107.898 176.757 107.844L162.992 99.8957C162.707 99.7313 162.609 99.3671 162.774 99.0822C162.938 98.797 163.302 98.6996 163.587 98.8641L177.353 106.812C177.638 106.976 177.735 107.341 177.571 107.626C177.46 107.816 177.26 107.923 177.054 107.923ZM175.242 111.063C175.141 111.063 175.039 111.037 174.945 110.983L161.179 103.035C160.894 102.871 160.796 102.506 160.961 102.222C161.125 101.936 161.49 101.839 161.775 102.004L175.54 109.951C175.825 110.116 175.923 110.48 175.758 110.765C175.648 110.956 175.448 111.063 175.242 111.063Z" fill="#99A6BF"/>
<path fill-rule="evenodd" clip-rule="evenodd" d="M150.319 84.8612C150.266 84.8612 150.195 84.8855 150.155 84.9538L142.417 98.3573C142.384 98.4145 142.391 98.4701 142.399 98.4983C142.407 98.5265 142.428 98.5787 142.485 98.6117L151.962 104.083C151.99 104.099 152.021 104.108 152.053 104.108C152.106 104.108 152.177 104.083 152.216 104.015L159.955 90.6114C160.005 90.5239 159.974 90.4077 159.887 90.3572L150.41 84.8855C150.382 84.8693 150.351 84.8612 150.319 84.8612ZM152.053 105.299C151.812 105.299 151.575 105.235 151.367 105.115L141.889 99.6433C141.571 99.4596 141.344 99.1627 141.248 98.8067C141.153 98.4505 141.201 98.0797 141.385 97.7618L149.124 84.358C149.369 83.9334 149.827 83.6699 150.319 83.6699C150.559 83.6699 150.797 83.7335 151.005 83.8539L160.483 89.3256C161.14 89.7053 161.366 90.5495 160.987 91.2072L153.248 104.611C153.003 105.035 152.545 105.299 152.053 105.299Z" fill="#99A6BF"/>
<path fill-rule="evenodd" clip-rule="evenodd" d="M140.985 102.821C140.884 102.821 140.781 102.795 140.688 102.741C140.403 102.576 140.305 102.212 140.47 101.927L142.111 99.0839C142.275 98.7989 142.64 98.7017 142.925 98.8661C143.21 99.0306 143.307 99.3949 143.143 99.6798L141.501 102.523C141.391 102.714 141.191 102.821 140.985 102.821ZM149.582 107.784C149.481 107.784 149.379 107.759 149.285 107.705C149 107.54 148.902 107.176 149.067 106.891L150.708 104.048C150.873 103.763 151.237 103.665 151.522 103.83C151.807 103.994 151.904 104.359 151.74 104.643L150.099 107.486C149.988 107.677 149.788 107.785 149.582 107.784Z" fill="#99A6BF"/>
<path fill-rule="evenodd" clip-rule="evenodd" d="M151.147 85.2203C151.046 85.2203 150.944 85.1946 150.85 85.1405C150.565 84.976 150.467 84.6117 150.632 84.3268L152.273 81.4834C152.438 81.1984 152.802 81.101 153.087 81.2655C153.372 81.4298 153.469 81.7943 153.305 82.0792L151.663 84.9224C151.553 85.1133 151.353 85.2204 151.147 85.2203ZM159.744 90.1839C159.643 90.1839 159.541 90.1583 159.447 90.104C159.162 89.9396 159.064 89.5753 159.229 89.2905L160.87 86.4471C161.035 86.162 161.399 86.0647 161.684 86.2292C161.969 86.3935 162.067 86.7579 161.902 87.0428L160.261 89.886C160.15 90.077 159.95 90.184 159.744 90.1839Z" fill="#99A6BF"/>
<path fill-rule="evenodd" clip-rule="evenodd" d="M153.618 79.1911C153.552 79.1911 153.465 79.2213 153.417 79.3056L152.6 80.7189C152.538 80.827 152.577 80.9708 152.685 81.0331L162.086 86.461C162.121 86.4808 162.159 86.4912 162.199 86.4912C162.264 86.4912 162.351 86.4612 162.4 86.377L163.216 84.9633C163.279 84.8556 163.24 84.7117 163.132 84.6495L153.731 79.2213C153.696 79.2015 153.658 79.1913 153.618 79.1911ZM162.199 87.6822C161.951 87.6822 161.706 87.6168 161.491 87.4927L152.089 82.0647C151.41 81.6727 151.177 80.802 151.569 80.1235L152.385 78.7098C152.638 78.272 153.11 78 153.618 78C153.866 77.9998 154.111 78.0657 154.326 78.1898L163.728 83.6179C164.406 84.0096 164.639 84.8805 164.248 85.559L163.432 86.9725C163.179 87.4103 162.706 87.6825 162.199 87.6822Z" fill="#99A6BF"/>
<path fill-rule="evenodd" clip-rule="evenodd" d="M140.171 102.477C140.107 102.477 140.021 102.507 139.974 102.589L139.153 104.011C139.113 104.08 139.122 104.147 139.131 104.182C139.141 104.215 139.166 104.278 139.235 104.318L148.645 109.751C148.679 109.771 148.716 109.781 148.755 109.781C148.819 109.781 148.905 109.751 148.953 109.669L149.773 108.247C149.813 108.178 149.804 108.111 149.795 108.077C149.786 108.043 149.76 107.98 149.691 107.94L140.281 102.507C140.247 102.487 140.21 102.477 140.171 102.477ZM148.755 110.972C148.508 110.972 148.264 110.906 148.049 110.783L138.64 105.35C138.313 105.161 138.079 104.856 137.981 104.49C137.883 104.124 137.933 103.742 138.121 103.415L138.942 101.994C139.194 101.557 139.665 101.286 140.171 101.286C140.418 101.286 140.663 101.351 140.877 101.475L150.286 106.908C150.613 107.096 150.847 107.402 150.946 107.768C151.044 108.134 150.994 108.516 150.805 108.843L149.984 110.264C149.732 110.701 149.261 110.972 148.755 110.972Z" fill="#99A6BF"/>
<path fill-rule="evenodd" clip-rule="evenodd" d="M161.748 97.7634C161.61 97.7634 161.483 97.8364 161.415 97.9534L159.305 101.609C159.254 101.696 159.241 101.799 159.268 101.898C159.294 101.997 159.357 102.08 159.444 102.13L160.291 102.618C160.468 102.721 160.711 102.653 160.812 102.479L162.922 98.8234C162.972 98.7361 162.986 98.6335 162.959 98.5345C162.932 98.4354 162.87 98.3531 162.783 98.3027L161.936 97.8136C161.878 97.7804 161.815 97.7636 161.748 97.7634ZM160.479 103.86C160.204 103.86 159.933 103.788 159.695 103.65L158.849 103.161C158.486 102.952 158.226 102.613 158.117 102.206C158.008 101.8 158.063 101.376 158.273 101.013L160.384 97.3577C160.663 96.873 161.186 96.5723 161.748 96.5723C162.023 96.5722 162.294 96.6449 162.532 96.7822L163.378 97.2708C163.741 97.4802 164.001 97.8196 164.11 98.2262C164.219 98.6325 164.163 99.0563 163.954 99.419L161.843 103.075C161.564 103.559 161.041 103.86 160.479 103.86Z" fill="#99A6BF"/>
<path fill-rule="evenodd" clip-rule="evenodd" d="M178.163 107.287C177.918 107.287 177.691 107.417 177.57 107.626L175.758 110.765C175.571 111.089 175.682 111.506 176.007 111.693L177.54 112.578C177.643 112.638 177.759 112.669 177.877 112.669C178.121 112.669 178.348 112.539 178.468 112.33L180.281 109.191C180.371 109.034 180.395 108.852 180.347 108.675C180.3 108.499 180.188 108.353 180.032 108.263L178.498 107.377C178.397 107.318 178.28 107.287 178.163 107.287ZM177.877 113.86C177.55 113.86 177.228 113.774 176.945 113.61L175.411 112.725C174.518 112.209 174.211 111.063 174.726 110.169L176.539 107.03C176.872 106.454 177.494 106.096 178.163 106.096C178.489 106.096 178.811 106.182 179.094 106.345L180.628 107.231C181.06 107.48 181.368 107.884 181.498 108.367C181.628 108.851 181.562 109.355 181.313 109.786L179.5 112.925C179.167 113.502 178.545 113.86 177.877 113.86Z" fill="#99A6BF"/>
<path fill-rule="evenodd" clip-rule="evenodd" d="M155.874 121.268C155.545 121.268 155.279 121.001 155.279 120.672V117.873C155.279 116.712 154.333 115.767 153.172 115.767L133.676 115.767C132.514 115.767 131.569 116.712 131.569 117.873V120.672C131.569 121.001 131.303 121.268 130.974 121.268C130.645 121.268 130.378 121.001 130.378 120.672V117.873C130.378 116.055 131.858 114.575 133.676 114.575L153.172 114.575C154.99 114.575 156.47 116.055 156.47 117.873L156.47 120.672C156.47 121.001 156.203 121.268 155.874 121.268Z" fill="#99A6BF"/>
<path fill-rule="evenodd" clip-rule="evenodd" d="M129.449 121.269C128.755 121.269 128.191 121.833 128.191 122.526V124.321C128.191 125.014 128.755 125.578 129.449 125.578L157.399 125.578C158.092 125.578 158.656 125.014 158.656 124.321L158.656 122.526C158.656 121.833 158.092 121.269 157.399 121.269L129.449 121.269ZM157.399 126.77H129.449C128.098 126.77 127 125.671 127 124.321V122.526C127 121.176 128.098 120.077 129.449 120.077L157.399 120.077C158.749 120.077 159.848 121.176 159.848 122.526V124.321C159.848 125.671 158.749 126.77 157.399 126.77Z" fill="#99A6BF"/>
<path fill-rule="evenodd" clip-rule="evenodd" d="M133.123 112.741C132.86 112.741 132.619 112.566 132.548 112.3L131.424 108.104C131.339 107.786 131.527 107.46 131.845 107.375C132.163 107.29 132.489 107.478 132.574 107.796L133.699 111.991C133.784 112.309 133.595 112.636 133.277 112.721C133.226 112.735 133.174 112.741 133.123 112.741Z" fill="#99A6BF"/>
<path fill-rule="evenodd" clip-rule="evenodd" d="M135.58 112.083C135.529 112.083 135.477 112.076 135.426 112.063C135.108 111.977 134.919 111.651 135.004 111.333L136.128 107.138C136.213 106.82 136.54 106.632 136.858 106.717C137.176 106.802 137.364 107.128 137.279 107.446L136.155 111.641C136.084 111.907 135.843 112.083 135.58 112.083Z" fill="#99A6BF"/>
<path fill-rule="evenodd" clip-rule="evenodd" d="M130.667 113.399C130.514 113.399 130.362 113.341 130.245 113.225L127.174 110.153C126.942 109.921 126.942 109.544 127.174 109.311C127.407 109.079 127.784 109.079 128.017 109.311L131.088 112.382C131.32 112.615 131.32 112.992 131.088 113.225C130.972 113.341 130.819 113.399 130.667 113.399Z" fill="#99A6BF"/>
<line x1="114.5" y1="2.18557e-08" x2="114.5" y2="223" stroke="#F5F6F7"/>
<line y1="140.5" x2="211" y2="140.5" stroke="#F5F6F7"/>
</svg>
